<svg width="779" height="102" viewBox="0 0 779 102" fill="none" xmlns="http://www.w3.org/2000/svg">
<g filter="url(#filter0_dd_27_7)">
<path d="M113.875 91H74.6875V86.5625C76.1042 86.5208 77.9167 86.375 80.125 86.125C82.375 85.875 83.9167 85.5208 84.75 85.0625C86.0417 84.2708 86.9792 83.375 87.5625 82.375C88.1875 81.3333 88.5 80.0417 88.5 78.5V14H87.5625L57.3125 89.5625H54.1875L25.375 12.4375H24.5625V65.375C24.5625 70.5 24.875 74.3958 25.5 77.0625C26.1667 79.7292 27.1667 81.6458 28.5 82.8125C29.4167 83.6875 31.3125 84.5208 34.1875 85.3125C37.0625 86.1042 38.9375 86.5208 39.8125 86.5625V91H4V86.5625C5.875 86.3958 7.83333 86.0833 9.875 85.625C11.9583 85.1667 13.5625 84.4792 14.6875 83.5625C16.1458 82.3958 17.1458 80.6042 17.6875 78.1875C18.2292 75.7708 18.5 71.7292 18.5 66.0625V20.6875C18.5 18.0625 18.1875 15.9167 17.5625 14.25C16.9375 12.5833 16.0417 11.2292 14.875 10.1875C13.5833 9.0625 12 8.22917 10.125 7.6875C8.25 7.14583 6.39583 6.83333 4.5625 6.75V2.3125H34.8125L60.1875 68.8125L81.875 13.1875C82.6667 11.1458 83.3333 9.02083 83.875 6.8125C84.4583 4.5625 84.7708 3.0625 84.8125 2.3125H113.75V6.75C112.583 6.79167 111.083 6.97917 109.25 7.3125C107.458 7.64583 106.146 7.95833 105.312 8.25C103.896 8.75 102.938 9.58333 102.438 10.75C101.938 11.9167 101.688 13.1875 101.688 14.5625V78.5C101.688 79.9583 101.938 81.1875 102.438 82.1875C102.938 83.1875 103.896 84.0625 105.312 84.8125C106.062 85.2292 107.396 85.625 109.312 86C111.229 86.3333 112.75 86.5208 113.875 86.5625V91ZM216.202 6.75C215.036 6.79167 213.327 7.04167 211.077 7.5C208.827 7.95833 206.994 8.64583 205.577 9.5625C204.161 10.5208 203.182 12.5 202.64 15.5C202.098 18.5 201.827 22.1667 201.827 26.5V65.0625C201.827 69.9792 200.807 74.25 198.765 77.875C196.723 81.5 194.036 84.4792 190.702 86.8125C187.411 89.0625 183.932 90.6667 180.265 91.625C176.64 92.625 173.161 93.125 169.827 93.125C164.494 93.125 159.744 92.4167 155.577 91C151.411 89.625 147.911 87.75 145.077 85.375C142.286 83 140.182 80.2917 138.765 77.25C137.348 74.1667 136.64 70.9583 136.64 67.625V15.1875C136.64 13.7292 136.39 12.5208 135.89 11.5625C135.432 10.5625 134.473 9.64583 133.015 8.8125C131.973 8.22917 130.64 7.77083 129.015 7.4375C127.39 7.0625 126.057 6.83333 125.015 6.75V2.3125H161.952V6.75C160.786 6.79167 159.307 6.97917 157.515 7.3125C155.765 7.64583 154.473 7.95833 153.64 8.25C152.223 8.75 151.265 9.58333 150.765 10.75C150.307 11.9167 150.077 13.1875 150.077 14.5625V63.5625C150.077 65.9375 150.327 68.4375 150.827 71.0625C151.369 73.6458 152.411 76.0625 153.952 78.3125C155.577 80.6042 157.786 82.4792 160.577 83.9375C163.369 85.3958 167.202 86.125 172.077 86.125C176.661 86.125 180.494 85.3958 183.577 83.9375C186.702 82.4792 189.161 80.5625 190.952 78.1875C192.661 75.9375 193.869 73.5833 194.577 71.125C195.286 68.6667 195.64 66.1875 195.64 63.6875V27.3125C195.64 22.6875 195.307 18.9167 194.64 16C193.973 13.0417 192.994 11.1042 191.702 10.1875C190.244 9.14583 188.244 8.33333 185.702 7.75C183.202 7.16667 181.286 6.83333 179.952 6.75V2.3125H216.202V6.75ZM315.03 6.75C313.863 6.79167 312.072 7.125 309.655 7.75C307.238 8.375 305.509 9.02083 304.467 9.6875C302.967 10.7292 301.947 12.7292 301.405 15.6875C300.905 18.6458 300.655 22.3958 300.655 26.9375V91.875H295.217L241.467 19.3125V65.0625C241.467 70.1875 241.78 74.125 242.405 76.875C243.072 79.625 244.072 81.5833 245.405 82.75C246.363 83.6667 248.342 84.5208 251.342 85.3125C254.342 86.1042 256.322 86.5208 257.28 86.5625V91H220.905V86.5625C222.03 86.4792 223.926 86.0833 226.592 85.375C229.259 84.625 230.926 83.9583 231.592 83.375C233.051 82.2083 234.051 80.4375 234.592 78.0625C235.134 75.6458 235.405 71.5417 235.405 65.75V22.0625C235.405 20.1458 235.072 18.2292 234.405 16.3125C233.738 14.3958 232.842 12.9167 231.717 11.875C230.217 10.5 228.176 9.33333 225.592 8.375C223.051 7.375 220.988 6.83333 219.405 6.75V2.3125H244.717L294.592 69.9375V27.75C294.592 22.5833 294.259 18.625 293.592 15.875C292.926 13.0833 291.967 11.2292 290.717 10.3125C289.551 9.52083 287.634 8.75 284.967 8C282.342 7.25 280.342 6.83333 278.967 6.75V2.3125H315.03V6.75ZM393.185 91H353.247V86.5625C354.372 86.4792 355.997 86.3542 358.122 86.1875C360.247 86.0208 361.747 85.7708 362.622 85.4375C363.997 84.8958 364.997 84.1667 365.622 83.25C366.247 82.2917 366.56 80.9792 366.56 79.3125V15.0625C366.56 13.6042 366.331 12.3958 365.872 11.4375C365.414 10.4375 364.331 9.60417 362.622 8.9375C361.372 8.4375 359.789 7.97917 357.872 7.5625C355.997 7.10417 354.456 6.83333 353.247 6.75V2.3125H393.185V6.75C391.893 6.79167 390.352 6.95833 388.56 7.25C386.768 7.5 385.206 7.83333 383.872 8.25C382.289 8.75 381.227 9.5625 380.685 10.6875C380.143 11.8125 379.872 13.0625 379.872 14.4375V78.625C379.872 80 380.164 81.2292 380.747 82.3125C381.372 83.3542 382.414 84.1875 383.872 84.8125C384.747 85.1458 386.164 85.5208 388.122 85.9375C390.122 86.3125 391.81 86.5208 393.185 86.5625V91ZM460.138 50.3125C462.013 52.3958 463.388 54.6875 464.263 57.1875C465.179 59.6458 465.638 62.5208 465.638 65.8125C465.638 73.6458 462.742 80.1042 456.95 85.1875C451.158 90.2708 443.971 92.8125 435.388 92.8125C431.429 92.8125 427.471 92.2083 423.513 91C419.554 89.75 416.138 88.25 413.263 86.5L410.575 91.0625H405.575L404.7 60.6875H409.763C410.804 64.4375 412.013 67.8333 413.388 70.875C414.804 73.875 416.658 76.6875 418.95 79.3125C421.117 81.7708 423.638 83.7292 426.513 85.1875C429.429 86.6458 432.804 87.375 436.638 87.375C439.513 87.375 442.013 87 444.138 86.25C446.304 85.5 448.054 84.4375 449.388 83.0625C450.721 81.6875 451.7 80.0833 452.325 78.25C452.992 76.375 453.325 74.2292 453.325 71.8125C453.325 68.2708 452.325 64.9792 450.325 61.9375C448.325 58.8542 445.346 56.5208 441.388 54.9375C438.679 53.8542 435.575 52.6667 432.075 51.375C428.575 50.0417 425.554 48.7917 423.013 47.625C418.013 45.375 414.117 42.4375 411.325 38.8125C408.575 35.1458 407.2 30.375 407.2 24.5C407.2 21.125 407.888 17.9792 409.263 15.0625C410.638 12.1458 412.596 9.54167 415.138 7.25C417.554 5.08333 420.408 3.39583 423.7 2.1875C426.992 0.9375 430.429 0.3125 434.013 0.3125C438.096 0.3125 441.742 0.9375 444.95 2.1875C448.2 3.4375 451.158 4.89583 453.825 6.5625L456.388 2.3125H461.388L461.888 31.75H456.825C455.908 28.375 454.867 25.1458 453.7 22.0625C452.575 18.9792 451.096 16.1875 449.263 13.6875C447.471 11.2708 445.283 9.35417 442.7 7.9375C440.117 6.47917 436.95 5.75 433.2 5.75C429.242 5.75 425.867 7.02083 423.075 9.5625C420.283 12.1042 418.888 15.2083 418.888 18.875C418.888 22.7083 419.783 25.8958 421.575 28.4375C423.367 30.9375 425.971 33 429.388 34.625C432.429 36.0833 435.408 37.3542 438.325 38.4375C441.283 39.4792 444.138 40.6042 446.888 41.8125C449.388 42.8958 451.783 44.125 454.075 45.5C456.408 46.875 458.429 48.4792 460.138 50.3125ZM577.793 24.5H573.105C572.23 21.2083 570.397 17.6875 567.605 13.9375C564.855 10.1875 562.209 8.125 559.668 7.75C558.376 7.58333 556.834 7.45833 555.043 7.375C553.293 7.29167 551.293 7.25 549.043 7.25H534.168V42.875H544.355C547.438 42.875 549.834 42.5625 551.543 41.9375C553.251 41.2708 554.709 40.2708 555.918 38.9375C556.751 38.0208 557.501 36.6042 558.168 34.6875C558.876 32.7292 559.334 30.6458 559.543 28.4375H564.293V63.25H559.543C559.418 61.4167 558.98 59.3333 558.23 57C557.522 54.6667 556.751 52.9792 555.918 51.9375C554.668 50.3958 553.084 49.3542 551.168 48.8125C549.293 48.2292 547.022 47.9375 544.355 47.9375H534.168V78.5C534.168 79.875 534.438 81.1042 534.98 82.1875C535.522 83.2708 536.48 84.1458 537.855 84.8125C538.48 85.1042 539.834 85.4583 541.918 85.875C544.001 86.2917 545.584 86.5208 546.668 86.5625V91H508.23V86.5625C509.48 86.4792 511.147 86.3542 513.23 86.1875C515.313 85.9792 516.668 85.7292 517.293 85.4375C518.543 84.8958 519.438 84.1042 519.98 83.0625C520.563 81.9792 520.855 80.6875 520.855 79.1875V15.1875C520.855 13.8125 520.626 12.6042 520.168 11.5625C519.709 10.4792 518.751 9.60417 517.293 8.9375C516.168 8.39583 514.647 7.91667 512.73 7.5C510.855 7.08333 509.355 6.83333 508.23 6.75V2.3125H577.793V24.5ZM676.057 6.75C674.891 6.79167 673.182 7.04167 670.932 7.5C668.682 7.95833 666.849 8.64583 665.432 9.5625C664.016 10.5208 663.037 12.5 662.495 15.5C661.953 18.5 661.682 22.1667 661.682 26.5V65.0625C661.682 69.9792 660.662 74.25 658.62 77.875C656.578 81.5 653.891 84.4792 650.557 86.8125C647.266 89.0625 643.787 90.6667 640.12 91.625C636.495 92.625 633.016 93.125 629.682 93.125C624.349 93.125 619.599 92.4167 615.432 91C611.266 89.625 607.766 87.75 604.932 85.375C602.141 83 600.037 80.2917 598.62 77.25C597.203 74.1667 596.495 70.9583 596.495 67.625V15.1875C596.495 13.7292 596.245 12.5208 595.745 11.5625C595.287 10.5625 594.328 9.64583 592.87 8.8125C591.828 8.22917 590.495 7.77083 588.87 7.4375C587.245 7.0625 585.912 6.83333 584.87 6.75V2.3125H621.807V6.75C620.641 6.79167 619.162 6.97917 617.37 7.3125C615.62 7.64583 614.328 7.95833 613.495 8.25C612.078 8.75 611.12 9.58333 610.62 10.75C610.162 11.9167 609.932 13.1875 609.932 14.5625V63.5625C609.932 65.9375 610.182 68.4375 610.682 71.0625C611.224 73.6458 612.266 76.0625 613.807 78.3125C615.432 80.6042 617.641 82.4792 620.432 83.9375C623.224 85.3958 627.057 86.125 631.932 86.125C636.516 86.125 640.349 85.3958 643.432 83.9375C646.557 82.4792 649.016 80.5625 650.807 78.1875C652.516 75.9375 653.724 73.5833 654.432 71.125C655.141 68.6667 655.495 66.1875 655.495 63.6875V27.3125C655.495 22.6875 655.162 18.9167 654.495 16C653.828 13.0417 652.849 11.1042 651.557 10.1875C650.099 9.14583 648.099 8.33333 645.557 7.75C643.057 7.16667 641.141 6.83333 639.807 6.75V2.3125H676.057V6.75ZM774.885 6.75C773.718 6.79167 771.927 7.125 769.51 7.75C767.093 8.375 765.364 9.02083 764.323 9.6875C762.823 10.7292 761.802 12.7292 761.26 15.6875C760.76 18.6458 760.51 22.3958 760.51 26.9375V91.875H755.073L701.323 19.3125V65.0625C701.323 70.1875 701.635 74.125 702.26 76.875C702.927 79.625 703.927 81.5833 705.26 82.75C706.218 83.6667 708.198 84.5208 711.198 85.3125C714.198 86.1042 716.177 86.5208 717.135 86.5625V91H680.76V86.5625C681.885 86.4792 683.781 86.0833 686.448 85.375C689.114 84.625 690.781 83.9583 691.448 83.375C692.906 82.2083 693.906 80.4375 694.448 78.0625C694.989 75.6458 695.26 71.5417 695.26 65.75V22.0625C695.26 20.1458 694.927 18.2292 694.26 16.3125C693.593 14.3958 692.698 12.9167 691.573 11.875C690.073 10.5 688.031 9.33333 685.448 8.375C682.906 7.375 680.843 6.83333 679.26 6.75V2.3125H704.573L754.448 69.9375V27.75C754.448 22.5833 754.114 18.625 753.448 15.875C752.781 13.0833 751.823 11.2292 750.573 10.3125C749.406 9.52083 747.489 8.75 744.823 8C742.198 7.25 740.198 6.83333 738.823 6.75V2.3125H774.885V6.75Z" fill="#FFD230"/>
</g>
<defs>
<filter id="filter0_dd_27_7" x="0" y="0.3125" width="778.885" height="100.812" filterUnits="userSpaceOnUse" color-interpolation-filters="sRGB">
<feFlood flood-opacity="0" result="BackgroundImageFix"/>
<feColorMatrix in="SourceAlpha" type="matrix" values="0 0 0 0 0 0 0 0 0 0 0 0 0 0 0 0 0 0 127 0" result="hardAlpha"/>
<feOffset dy="4"/>
<feGaussianBlur stdDeviation="2"/>
<feComposite in2="hardAlpha" operator="out"/>
<feColorMatrix type="matrix" values="0 0 0 0 0 0 0 0 0 0 0 0 0 0 0 0 0 0 0.25 0"/>
<feBlend mode="normal" in2="BackgroundImageFix" result="effect1_dropShadow_27_7"/>
<feColorMatrix in="SourceAlpha" type="matrix" values="0 0 0 0 0 0 0 0 0 0 0 0 0 0 0 0 0 0 127 0" result="hardAlpha"/>
<feOffset dy="4"/>
<feGaussianBlur stdDeviation="2"/>
<feComposite in2="hardAlpha" operator="out"/>
<feColorMatrix type="matrix" values="0 0 0 0 0 0 0 0 0 0 0 0 0 0 0 0 0 0 0.25 0"/>
<feBlend mode="normal" in2="effect1_dropShadow_27_7" result="effect2_dropShadow_27_7"/>
<feBlend mode="normal" in="SourceGraphic" in2="effect2_dropShadow_27_7" result="shape"/>
</filter>
</defs>
</svg>
